<svg xmlns="http://www.w3.org/2000/svg" viewBox="0 0 25.69 25.11"><defs><style>.cls-1,.cls-3{fill:#010101;}.cls-1{stroke:#231f20;}.cls-1,.cls-2,.cls-3{stroke-miterlimit:10;}.cls-2{fill:#231f20;stroke:#3ac0c4;stroke-width:1.75px;}.cls-3{stroke:#010101;stroke-linecap:round;stroke-width:0.35px;}.cls-4{fill:#f15a29;}</style></defs><title>portfolio_logo</title><g id="Layer_2" data-name="Layer 2"><g id="Layer_2-2" data-name="Layer 2"><rect class="cls-1" x="3.87" y="0.51" width="0.63" height="20.15"/><polygon class="cls-1" points="21.07 0.5 21.54 0.61 21.68 0.8 13.18 17.01 12.59 16.71 20.95 0.5 21.07 0.5"/><rect class="cls-1" x="11.4" y="10.27" width="20.16" height="0.63" transform="translate(10.88 32.05) rotate(-89.92)"/><rect class="cls-2" x="0.88" y="23.49" width="23.94" height="0.75" transform="translate(25.69 47.73) rotate(180)"/><polygon class="cls-1" points="4.11 0.76 4.46 0.59 4.71 0.56 13.1 16.73 12.55 17.11 4.08 0.98 4.11 0.76"/><polygon class="cls-3" points="12.43 17.59 13.24 17.59 12.83 18.35 12.43 17.59"/><polygon class="cls-4" points="10.23 2.44 12.83 0.94 15.43 2.44 12.83 6.95 10.23 2.44"/></g></g></svg>